<svg width="10" height="11" viewBox="0 0 10 11" fill="none" xmlns="http://www.w3.org/2000/svg">
<path d="M7.69533 9.87514C7.62955 9.8754 7.56537 9.8549 7.51193 9.81655L5.00002 7.99546L2.4881 9.81655C2.43444 9.85548 2.36978 9.87632 2.30349 9.87608C2.2372 9.87584 2.1727 9.85452 2.11931 9.81521C2.06593 9.7759 2.02644 9.72063 2.00654 9.65739C1.98664 9.59415 1.98736 9.52623 2.00861 9.46343L2.9883 6.56167L0.449237 4.82046C0.394239 4.78278 0.35273 4.72851 0.330774 4.66557C0.308819 4.60262 0.307567 4.53431 0.327203 4.4706C0.346838 4.40689 0.386332 4.35113 0.439913 4.31147C0.493494 4.27181 0.558354 4.25032 0.625018 4.25015H3.75744L4.70275 1.34097C4.72312 1.27816 4.76285 1.22341 4.81626 1.18459C4.86966 1.14576 4.93399 1.12485 5.00002 1.12485C5.06604 1.12485 5.13038 1.14576 5.18378 1.18459C5.23719 1.22341 5.27692 1.27816 5.29728 1.34097L6.2426 4.25112H9.37502C9.44176 4.25109 9.50677 4.27243 9.56051 4.31202C9.61425 4.3516 9.6539 4.40735 9.67366 4.47111C9.69342 4.53487 9.69225 4.60327 9.67032 4.66631C9.64838 4.72935 9.60684 4.78371 9.55177 4.82143L7.01174 6.56167L7.99084 9.46265C8.0067 9.50961 8.01116 9.55968 8.00386 9.60871C7.99655 9.65775 7.97768 9.70434 7.94881 9.74464C7.91994 9.78494 7.8819 9.81779 7.83782 9.84048C7.79375 9.86317 7.7449 9.87506 7.69533 9.87514Z" fill="#FFAD30"/>
</svg>
