<svg width="17" height="17" viewBox="0 0 17 17" fill="none" xmlns="http://www.w3.org/2000/svg">
<path d="M8.49074 16.1146C4.77907 16.1146 1.76157 13.0971 1.76157 9.38542C1.76157 5.67375 4.77907 2.65625 8.49074 2.65625C12.2024 2.65625 15.2199 5.67375 15.2199 9.38542C15.2199 13.0971 12.2024 16.1146 8.49074 16.1146ZM8.49074 3.71875C5.36699 3.71875 2.82407 6.26167 2.82407 9.38542C2.82407 12.5092 5.36699 15.0521 8.49074 15.0521C11.6145 15.0521 14.1574 12.5092 14.1574 9.38542C14.1574 6.26167 11.6145 3.71875 8.49074 3.71875Z" fill="#A9A9A9"/>
<path d="M8.49073 9.73957C8.20032 9.73957 7.95948 9.49874 7.95948 9.20832V5.66666C7.95948 5.37624 8.20032 5.13541 8.49073 5.13541C8.78115 5.13541 9.02198 5.37624 9.02198 5.66666V9.20832C9.02198 9.49874 8.78115 9.73957 8.49073 9.73957Z" fill="#A9A9A9"/>
<path d="M10.6157 1.94791H6.36573C6.07532 1.94791 5.83448 1.70707 5.83448 1.41666C5.83448 1.12624 6.07532 0.885406 6.36573 0.885406H10.6157C10.9062 0.885406 11.147 1.12624 11.147 1.41666C11.147 1.70707 10.9062 1.94791 10.6157 1.94791Z" fill="#A9A9A9"/>
</svg>
