<svg width="12" height="14" viewBox="0 0 12 14" fill="none" xmlns="http://www.w3.org/2000/svg">
<path fill-rule="evenodd" clip-rule="evenodd" d="M5.98017 0.166668C4.91259 0.166668 4.02549 0.204724 3.30587 0.351998C2.57719 0.501123 1.97665 0.770723 1.52547 1.26499C1.0796 1.75344 0.831525 2.40495 0.689331 3.21277C0.547392 4.01915 0.502834 5.03157 0.502834 6.286C0.502834 6.77013 0.502012 7.22469 0.501241 7.65107C0.497597 9.66752 0.495092 11.0538 0.586009 11.9579C0.640255 12.4974 0.733797 12.9553 0.939476 13.2842C1.05009 13.461 1.19699 13.6076 1.38773 13.7051C1.57506 13.801 1.77285 13.8333 1.96217 13.8333C2.39468 13.8333 2.81407 13.5954 3.1526 13.3602C3.48307 13.1306 3.83094 12.8333 4.15991 12.5521L4.23778 12.4856C4.60105 12.1756 4.94226 11.8893 5.26245 11.6791C5.59459 11.461 5.82806 11.3773 5.98017 11.3773C6.13227 11.3773 6.36575 11.461 6.69788 11.6791C7.01808 11.8893 7.35928 12.1756 7.72256 12.4856L7.80041 12.5521C8.12939 12.8333 8.47726 13.1306 8.80774 13.3602C9.14626 13.5954 9.56565 13.8333 9.99817 13.8333C10.1875 13.8333 10.3853 13.801 10.5726 13.7051C10.7633 13.6076 10.9102 13.461 11.0209 13.2842C11.2265 12.9553 11.3201 12.4974 11.3743 11.9579C11.4652 11.0538 11.4627 9.66753 11.4591 7.65107C11.4583 7.22469 11.4575 6.77013 11.4575 6.286C11.4575 5.03157 11.4129 4.01915 11.271 3.21277C11.1288 2.40495 10.8807 1.75344 10.4349 1.26499C9.98368 0.770723 9.38314 0.501123 8.65447 0.351998C7.93484 0.204724 7.04775 0.166668 5.98017 0.166668ZM1.50283 6.286C1.50283 5.04143 1.54819 4.10194 1.67419 3.38613C1.79993 2.67176 1.99781 2.23082 2.26403 1.93918C2.52493 1.65336 2.9026 1.45525 3.50636 1.33169C4.11917 1.20628 4.91875 1.16667 5.98017 1.16667C7.04159 1.16667 7.84116 1.20628 8.45397 1.33169C9.05774 1.45525 9.4354 1.65336 9.6963 1.93918C9.96252 2.23082 10.1604 2.67176 10.2861 3.38613C10.4121 4.10194 10.4575 5.04143 10.4575 6.286C10.4575 6.78192 10.4583 7.24383 10.459 7.67396C10.4624 9.69114 10.4647 11.0093 10.3793 11.8579C10.3268 12.3809 10.247 12.6357 10.173 12.7539C10.1438 12.8006 10.1243 12.8112 10.1171 12.8149C10.1065 12.8203 10.0748 12.8333 9.99817 12.8333C9.89902 12.8333 9.70257 12.7643 9.37835 12.539C9.09092 12.3393 8.77998 12.0737 8.4386 11.7821L8.37178 11.725C8.01572 11.4211 7.62792 11.0934 7.2467 10.8431C6.87742 10.6007 6.43706 10.3773 5.98017 10.3773C5.52327 10.3773 5.08291 10.6007 4.71363 10.8431C4.33241 11.0934 3.94461 11.4211 3.58856 11.725L3.52173 11.7821L3.52169 11.7821C3.18033 12.0737 2.86941 12.3393 2.58199 12.539C2.25776 12.7643 2.06132 12.8333 1.96217 12.8333C1.88549 12.8333 1.85379 12.8203 1.84319 12.8149C1.836 12.8112 1.81652 12.8006 1.78732 12.7539C1.71337 12.6357 1.63358 12.3809 1.58099 11.8579C1.49566 11.0093 1.4979 9.69114 1.50132 7.67397L1.50132 7.67391C1.50205 7.2438 1.50283 6.7819 1.50283 6.286ZM3.69499 4.64513C3.41885 4.64513 3.19499 4.86899 3.19499 5.14513C3.19499 5.42128 3.41885 5.64513 3.69499 5.64513H8.26499C8.54113 5.64513 8.76499 5.42128 8.76499 5.14513C8.76499 4.86899 8.54113 4.64513 8.26499 4.64513H3.69499Z" fill="#71B1A1"/>
</svg>
